<?xml version="1.0" encoding="UTF-8"?>
<svg id="Layer_1" xmlns="http://www.w3.org/2000/svg" version="1.1" viewBox="0 0 64 64">
  <!-- Generator: Adobe Illustrator 30.6.0, SVG Export Plug-In . SVG Version: 2.1.4 Build 109)  -->
  <rect width="64" height="64" rx="14" ry="14" fill="#c61d23"/>
  <g>
    <path d="M6.99,42.8c0-1.57.86-2.43,2.43-2.43h.55v-16.08h-.55c-1.57,0-2.43-.86-2.43-2.43v-1.17c0-1.57.86-2.43,2.43-2.43h16.83c1.57,0,2.43.86,2.43,2.43v4.23c0,1.57-.86,2.43-2.43,2.43h-2.19c-1.57,0-2.27-.74-2.39-2.54h-3.25v5.13h5.17c1.57,0,2.43.86,2.43,2.43v1.68c0,1.57-.86,2.43-2.43,2.43h-5.17v3.91h.98c1.57,0,2.43.86,2.43,2.43v1.17c0,1.57-.86,2.43-2.43,2.43h-9.98c-1.57,0-2.43-.86-2.43-2.43v-1.17Z" fill="#fff"/>
    <path d="M30.89,42.8c0-1.57.86-2.43,2.43-2.43h.55v-16.08h-.55c-1.57,0-2.43-.86-2.43-2.43v-1.17c0-1.57.86-2.43,2.43-2.43h10.53c2.19,0,4.23.04,5.87.51,3.6,1.02,5.95,4.03,5.95,8.1,0,3.33-1.57,6.03-4.03,7.75v.08c.12.04,1.21.51,1.88,1.88l1.84,3.8c1.57,0,2.43.86,2.43,2.43v1.17c0,1.57-.86,2.43-2.43,2.43h-3.29c-2.35,0-3.33-.74-3.99-2.07l-3.21-6.46c-.35-.74-.67-1.06-2-1.06h-.55v3.56c1.68,0,2.54.86,2.54,2.43v1.17c0,1.57-.86,2.43-2.43,2.43h-9.12c-1.57,0-2.43-.86-2.43-2.43v-1.17ZM44.4,30.67c1.92,0,2.97-1.06,2.97-3.05,0-1.72-.86-2.82-3.6-2.82h-1.45v5.87h2.07Z" fill="#fff"/>
  </g>
</svg>