<?xml version="1.0" encoding="UTF-8"?>
<svg id="Layer_1" xmlns="http://www.w3.org/2000/svg" version="1.1" viewBox="0 0 205.64 130.67">
  <!-- Generator: Adobe Illustrator 30.6.0, SVG Export Plug-In . SVG Version: 2.1.4 Build 109)  -->
  <g>
    <g>
      <path d="M63.85,81.46l-2.96-6.11c-1.07-2.21-2.83-2.96-3.02-3.02v-.13c3.97-2.77,6.49-7.12,6.49-12.47,0-6.55-3.78-11.4-9.58-13.04-2.65-.76-5.92-.82-9.45-.82h-16.95c-2.52,0-3.91,1.39-3.91,3.91v1.89c0,2.52,1.39,3.91,3.91,3.91h.88v25.89h-.88c-2.52,0-3.91,1.39-3.91,3.91v1.89c0,2.52,1.39,3.91,3.91,3.91h14.68c2.52,0,3.91-1.39,3.91-3.91v-1.89c0-2.52-1.39-3.91-4.09-3.91v-5.73h.88c2.14,0,2.65.5,3.21,1.7l5.17,10.4c1.07,2.14,2.65,3.34,6.43,3.34h5.29c2.52,0,3.91-1.39,3.91-3.91v-1.89c0-2.52-1.39-3.91-3.91-3.91ZM46.21,65.84h-3.34v-9.45h2.33c4.41,0,5.8,1.76,5.8,4.54,0,3.21-1.7,4.91-4.79,4.91Z" fill="#ed1c24"/>
      <path d="M147.23,66.91h-10.84c-2.52,0-3.91,1.39-3.91,3.91v1.89c0,2.52,1.39,3.91,3.91,3.91h2.65v1.64c0,1.39-2.27,2.33-5.8,2.33-8.25,0-12.22-5.1-12.22-12.35,0-7.69,4.54-11.78,11.34-11.78,4.28,0,5.61,1.58,5.73,1.76,0,2.52,1.32,3.91,3.84,3.91h4.28c2.52,0,3.91-1.39,3.91-3.91v-4.28c0-5.67-10.33-8.82-18.59-8.82-14.3,0-24.57,9.58-24.57,23.44s9.64,23.37,25.45,23.37c9.89,0,18.71-3.97,18.71-9.76v-11.34c0-2.52-1.39-3.91-3.91-3.91Z" fill="#ed1c24"/>
      <path d="M102.74,76.61h-3.53c-2.52,0-3.91,1.39-3.91,3.91v.13h-6.8v-6.99h8.06c2.52,0,3.91-1.39,3.91-3.91v-2.77c0-2.52-1.39-3.91-3.91-3.91h-8.06v-6.68h6.17c0,2.77,1.39,4.16,3.91,4.16h3.53c2.52,0,3.91-1.39,3.91-3.91v-6.87c0-2.52-1.39-3.91-3.91-3.91h-28.1c-2.52,0-3.91,1.39-3.91,3.91v1.89c0,2.52,1.39,3.91,3.91,3.91h.88v25.89h-.88c-2.52,0-3.91,1.39-3.91,3.91v1.89c0,2.52,1.39,3.91,3.91,3.91h28.73c2.52,0,3.91-1.39,3.91-3.91v-6.74c0-2.52-1.39-3.91-3.91-3.91Z" fill="#ed1c24"/>
    </g>
    <g>
      <path d="M179.93,66.2l-1.98,2.88-1.21-3.28c-.29-.84-.51-1.44-.69-1.88-.29-.71-.56-1.19-.79-1.41-.23-.22-.52-.33-.89-.33-1.13,0-2.29.42-3.44,1.25-1.16.83-1.74,1.76-1.74,2.76,0,.49.27,1.73.81,3.67l.03.12c.02.08.05.19.08.28l.03.1c.45,1.67.85,2.98,1.2,3.89.35.92.72,1.64,1.12,2.2.48.64,1.02,1.1,1.6,1.37.58.27,1.3.4,2.2.4,2.08,0,3.71-1.15,4.84-3.43.36-.75.66-1.33.91-1.76,3.3-5.69,6.97-11.32,10.9-16.73,3.93-5.41,8.21-10.71,12.71-15.78l-.37-.92c-2.08.14-3.75.41-5.11.82-1.34.4-2.45.96-3.3,1.66-.98.81-2.06,1.97-3.29,3.55-1.23,1.58-2.96,4.06-5.3,7.58-1.64,2.47-3.64,5.59-5.94,9.26-.96,1.53-1.77,2.79-2.41,3.73Z" fill="#ed1c24"/>
      <path d="M195.86,58.43c-3.86,5.31-7.46,10.83-10.7,16.41-.2.35-.47.87-.8,1.55-2.35,4.74-6.07,5.45-8.08,5.45-1.43,0-2.64-.24-3.7-.72-1.13-.52-2.14-1.37-3.01-2.52-.61-.85-1.12-1.83-1.58-3.04-.39-1.02-.83-2.43-1.31-4.21-.06-.18-.12-.39-.15-.56-.77-2.79-.93-3.85-.93-4.58,0-1.25.42-3.66,3.24-5.69,1.78-1.28,3.65-1.93,5.55-1.93,1.31,0,2.49.47,3.4,1.35.38.37.71.81,1.02,1.38.15-.24.31-.49.47-.75,2.32-3.7,4.33-6.84,5.99-9.34,1.02-1.53,1.92-2.86,2.72-4.03-3.09-1.33-6.59-2.08-10.4-2.08-14.11,0-24.07,10.14-24.07,23.12s9.95,23.69,24.07,23.69,24.07-10.39,24.07-23.69c0-4.72-1.32-9.06-3.68-12.68-.72.95-1.44,1.91-2.14,2.87Z" fill="#ed1c24"/>
    </g>
    <path d="M200.98,125.87c0,1.9,1.14,2.13,2.03,2.13.44,0,.6-.22.6-.56v-.27c0-.3-.17-.44-.4-.47-.27-.03-.58-.14-.58-.79v-6.69c0-.32-.18-.51-.51-.51h-1.65c-.32,0-.51.18-.51.51v.22c0,.33.18.51.51.51h.52v5.93ZM196.34,127.43c0,.33.18.51.51.51h2.55c.32,0,.51-.18.51-.51v-.22c0-.32-.18-.51-.51-.51h-.44v-4.89c0-.32-.18-.51-.51-.51h-1.66c-.32,0-.51.18-.51.51v.22c0,.32.18.51.51.51h.52v4.16h-.48c-.31,0-.48.18-.48.51v.22ZM197.29,119.67c0,.33.18.51.51.51h.65c.32,0,.51-.18.51-.51v-.45c0-.32-.18-.51-.51-.51h-.65c-.32,0-.51.18-.51.51v.45ZM195.31,126.38c-.16-.3-.4-.35-.69-.17-.42.25-.97.49-1.62.49-1.13,0-2.08-.74-2.08-2.11,0-1.21.74-2.04,1.95-2.04.87,0,1.24.3,1.24.65,0,.19.09.44.51.44h.42c.32,0,.51-.18.51-.51v-.4c0-1.17-1.61-1.58-2.72-1.58-2.04,0-3.56,1.51-3.56,3.48,0,2.15,1.72,3.46,3.65,3.46,1,0,1.86-.38,2.39-.74.25-.18.29-.42.16-.69l-.14-.29ZM181.02,127.43c0,.33.18.51.51.51h2.55c.32,0,.51-.18.51-.51v-.22c0-.32-.18-.51-.51-.51h-.44v-1.74c0-1.16.7-2.3,1.9-2.3.83,0,1.05.55,1.05,1.35v3.42c0,.33.18.51.51.51h1.59c.32,0,.51-.18.51-.51v-.22c0-.32-.18-.51-.51-.51h-.46v-3.03c0-1.76-.81-2.52-2.22-2.52-1.66,0-2.37,1.27-2.44,1.48h-.03s.03-.14.03-.29v-.3c0-.47-.27-.74-.86-.74h-1.24c-.33,0-.51.18-.51.51v.22c0,.32.18.51.51.51h.23c.18,0,.29.1.29.29v3.88h-.48c-.31,0-.48.18-.48.51v.22ZM173.22,125.57c0,1.81.85,2.52,2.17,2.52,1.66,0,2.34-1.23,2.42-1.45h.03s-.01.14-.01.31v.25c0,.47.27.74.86.74h1.13c.32,0,.51-.18.51-.51v-.21c0-.32-.18-.51-.51-.51h-.13c-.18,0-.29-.1-.29-.29v-4.62c0-.32-.18-.51-.51-.51h-1.65c-.33,0-.51.18-.51.51v.22c0,.32.18.51.51.51h.51v1.72c0,1.2-.69,2.37-1.83,2.37-.83,0-1.04-.55-1.04-1.34v-3.47c0-.32-.18-.51-.51-.51h-1.66c-.32,0-.51.18-.51.51v.22c0,.32.18.51.51.51h.52v3.03ZM168.3,126.69c-1.08,0-1.98-.83-1.98-2.07s.9-2.07,1.98-2.07,1.96.85,1.96,2.07-.9,2.07-1.96,2.07M164.64,124.62c0,2.04,1.62,3.47,3.65,3.47s3.64-1.43,3.64-3.47-1.62-3.47-3.65-3.47-3.64,1.44-3.64,3.47M162.33,125.73c0,.73-1.44.91-2,.91-1.82,0-3.17-1.35-3.17-3.43,0-1.95,1.3-3.2,3.08-3.2.75,0,1.98.23,1.98.92v.21c0,.33.18.51.51.51h.53c.32,0,.51-.18.51-.51v-.74c0-1.45-2.48-1.84-3.6-1.84-2.68,0-4.76,2-4.76,4.73s2.03,4.81,4.82,4.81c1.27,0,3.65-.44,3.65-1.82v-.75c0-.32-.18-.51-.51-.51h-.53c-.32,0-.51.18-.51.51v.21ZM144.88,129.77c-.12.3-.07.55.23.66.29.12.7.23,1.18.23,1.13,0,2.12-.56,2.63-1.87l2.44-6.26h.38c.23,0,.38-.18.38-.51v-.22c0-.32-.18-.51-.51-.51h-2.12c-.32,0-.51.18-.51.51v.22c0,.32.18.51.51.51h.26l-1.2,3.36c-.12.32-.18.65-.18.69h-.04s-.03-.36-.14-.69l-1.21-3.36h.39c.25,0,.39-.18.39-.51v-.22c0-.32-.18-.51-.51-.51h-2.25c-.33,0-.51.18-.51.51v.22c0,.32.18.51.51.51h.29l2.28,5.59-.18.42c-.21.48-.64.77-1.17.77-.21,0-.4-.04-.55-.09-.31-.09-.56-.07-.68.25l-.12.3ZM140.84,125.57c0,1.79,1.4,2.43,2.59,2.43.45,0,.68-.16.68-.55v-.35c0-.36-.14-.49-.55-.53-.46-.05-1.07-.25-1.07-1.24v-2.8h1c.32,0,.51-.18.51-.51v-.22c0-.32-.18-.51-.51-.51h-1v-1.3c0-.33-.18-.51-.51-.51h-.59c-.32,0-.51.18-.51.51v1.3h-.56c-.33,0-.51.18-.51.51v.22c0,.32.18.51.51.51h.51v3.03ZM135.91,127.43c0,.33.18.51.51.51h2.55c.32,0,.51-.18.51-.51v-.22c0-.32-.18-.51-.51-.51h-.44v-4.89c0-.32-.18-.51-.51-.51h-1.66c-.32,0-.51.18-.51.51v.22c0,.32.18.51.51.51h.52v4.16h-.48c-.31,0-.48.18-.48.51v.22ZM136.86,119.67c0,.33.18.51.51.51h.65c.32,0,.51-.18.51-.51v-.45c0-.32-.18-.51-.51-.51h-.65c-.32,0-.51.18-.51.51v.45ZM133.52,125.73c0,.73-1.44.91-2,.91-1.82,0-3.17-1.35-3.17-3.43,0-1.95,1.3-3.2,3.08-3.2.75,0,1.98.23,1.98.92v.21c0,.33.18.51.51.51h.53c.32,0,.51-.18.51-.51v-.74c0-1.45-2.48-1.84-3.6-1.84-2.68,0-4.76,2-4.76,4.73s2.03,4.81,4.82,4.81c1.27,0,3.65-.44,3.65-1.82v-.75c0-.32-.18-.51-.51-.51h-.53c-.32,0-.51.18-.51.51v.21ZM118.49,123.88c.16-.87.75-1.46,1.6-1.46.7,0,1.26.55,1.29,1.46h-2.89ZM122.61,126.47c-.16-.3-.39-.34-.69-.18-.35.19-.88.42-1.48.42-1,0-1.88-.62-1.99-1.85h4.11c.36,0,.52-.25.52-.56,0-1.76-1.04-3.15-2.95-3.15s-3.37,1.43-3.37,3.47c0,1.89,1.36,3.47,3.56,3.47,1.05,0,1.86-.39,2.29-.65.27-.16.31-.4.16-.69l-.16-.29ZM116.06,126.38c-.16-.3-.4-.35-.69-.17-.42.25-.97.49-1.62.49-1.13,0-2.08-.74-2.08-2.11,0-1.21.74-2.04,1.95-2.04.87,0,1.24.3,1.24.65,0,.19.09.44.51.44h.42c.32,0,.51-.18.51-.51v-.4c0-1.17-1.61-1.58-2.72-1.58-2.04,0-3.56,1.51-3.56,3.48,0,2.15,1.72,3.46,3.65,3.46,1,0,1.86-.38,2.39-.74.25-.18.29-.42.16-.69l-.14-.29ZM101.78,127.43c0,.33.18.51.51.51h2.55c.32,0,.51-.18.51-.51v-.22c0-.32-.18-.51-.51-.51h-.44v-1.74c0-1.16.7-2.3,1.9-2.3.83,0,1.05.55,1.05,1.35v3.42c0,.33.18.51.51.51h1.59c.32,0,.51-.18.51-.51v-.22c0-.32-.18-.51-.51-.51h-.46v-3.03c0-1.76-.81-2.52-2.22-2.52-1.66,0-2.37,1.27-2.44,1.48h-.03s.03-.14.03-.29v-.3c0-.47-.27-.74-.86-.74h-1.24c-.33,0-.51.18-.51.51v.22c0,.32.18.51.51.51h.23c.18,0,.29.1.29.29v3.88h-.48c-.31,0-.48.18-.48.51v.22ZM96.65,123.88c.16-.87.75-1.46,1.6-1.46.7,0,1.26.55,1.29,1.46h-2.89ZM100.78,126.47c-.16-.3-.39-.34-.69-.18-.35.19-.88.42-1.48.42-1,0-1.88-.62-1.99-1.85h4.11c.36,0,.52-.25.52-.56,0-1.76-1.04-3.15-2.95-3.15s-3.37,1.43-3.37,3.47c0,1.89,1.37,3.47,3.56,3.47,1.05,0,1.86-.39,2.29-.65.27-.16.31-.4.16-.69l-.16-.29ZM90.65,126.7c-.96,0-1.64-.82-1.64-2.08s.75-2.06,1.69-2.06c1.09,0,1.62,1.01,1.62,2.09,0,1.42-.81,2.04-1.68,2.04M92.4,127.24c0,.38.25.7.85.7h1.05c.32,0,.51-.18.51-.51v-.22c0-.32-.18-.51-.51-.51h-.09c-.18,0-.29-.09-.29-.29v-7.2c0-.32-.18-.51-.51-.51h-1.65c-.32,0-.51.18-.51.51v.22c0,.33.18.51.51.51h.52v1.68c0,.27.03.44.03.47h-.03c-.05-.09-.57-.94-1.91-.94-1.79,0-3.03,1.36-3.03,3.47s1.13,3.47,2.9,3.47c1.57,0,2.12-1.1,2.17-1.23h.03s-.04.12-.04.3v.08ZM83.67,127.43c0,.33.18.51.51.51h2.55c.32,0,.51-.18.51-.51v-.22c0-.32-.18-.51-.51-.51h-.44v-4.89c0-.32-.18-.51-.51-.51h-1.66c-.32,0-.51.18-.51.51v.22c0,.32.18.51.51.51h.52v4.16h-.48c-.31,0-.48.18-.48.51v.22ZM84.62,119.67c0,.33.18.51.51.51h.65c.33,0,.51-.18.51-.51v-.45c0-.32-.18-.51-.51-.51h-.65c-.32,0-.51.18-.51.51v.45ZM78.25,127.53c.1.29.3.4.58.4h1.04c.29,0,.48-.13.58-.4l1.87-4.99h.4c.25,0,.39-.18.39-.51v-.22c0-.32-.18-.51-.51-.51h-2.17c-.33,0-.51.18-.51.51v.22c0,.32.18.51.51.51h.25l-1.16,3.28c-.12.34-.16.69-.16.73h-.04s-.05-.39-.17-.73l-1.14-3.28h.38c.23,0,.36-.18.36-.51v-.22c0-.32-.18-.51-.51-.51h-2.17c-.32,0-.51.18-.51.51v.22c0,.32.18.51.51.51h.3l1.86,4.99ZM71.99,126.69c-1.08,0-1.98-.83-1.98-2.07s.9-2.07,1.98-2.07,1.96.85,1.96,2.07-.9,2.07-1.96,2.07M68.34,124.62c0,2.04,1.62,3.47,3.65,3.47s3.64-1.43,3.64-3.47-1.62-3.47-3.65-3.47-3.64,1.44-3.64,3.47M62.93,127.43c0,.33.18.51.51.51h2.55c.33,0,.51-.18.51-.51v-.22c0-.32-.18-.51-.51-.51h-.44v-1.44c0-1.21.58-2.41,1.79-2.41.35,0,.56-.19.56-.54v-.51c0-.36-.13-.54-.49-.54-.94,0-1.66.88-1.92,1.67h-.03s.04-.21.04-.45v-.36c0-.56-.31-.81-.9-.81h-1.22c-.32,0-.51.18-.51.51v.22c0,.32.18.51.51.51h.23c.18,0,.29.1.29.28v3.88h-.48c-.31,0-.48.18-.48.51v.22ZM57.41,123.3v-3.23h1.44c.42,0,.74.06,1,.22.43.25.68.74.68,1.38,0,.68-.26,1.2-.75,1.44-.26.13-.55.18-.94.18h-1.43ZM54.6,127.43c0,.33.18.51.51.51h2.91c.32,0,.51-.18.51-.51v-.26c0-.32-.18-.51-.51-.51h-.61v-2h1.65c.52,0,.99-.04,1.42-.18,1.07-.38,1.76-1.49,1.76-2.81s-.65-2.31-1.65-2.73c-.46-.19-1.01-.23-1.56-.23h-3.91c-.32,0-.51.18-.51.51v.27c0,.33.18.51.51.51h.6v6.67h-.6c-.32,0-.51.18-.51.51v.26ZM47.58,125.57c0,1.79,1.4,2.43,2.59,2.43.46,0,.68-.16.68-.55v-.35c0-.36-.14-.49-.55-.53-.46-.05-1.07-.25-1.07-1.24v-2.8h1c.33,0,.51-.18.51-.51v-.22c0-.32-.18-.51-.51-.51h-1v-1.3c0-.33-.18-.51-.51-.51h-.58c-.33,0-.51.18-.51.51v1.3h-.56c-.32,0-.51.18-.51.51v.22c0,.32.18.51.51.51h.51v3.03ZM40.59,126.5c0,1.08,1.48,1.6,2.69,1.6,1.52,0,2.79-.68,2.79-2.01s-1.2-1.72-2.21-2.04c-.74-.22-1.39-.44-1.39-.99,0-.42.44-.6.96-.6.58,0,.97.21.97.55,0,.25.18.38.51.38h.4c.32,0,.51-.18.51-.51v-.34c0-1-1.43-1.38-2.39-1.38-1.21,0-2.61.49-2.61,1.9,0,1.26,1.12,1.72,2.09,2.05.88.33,1.51.47,1.51,1.03,0,.44-.47.68-1.13.68-.85,0-1.27-.29-1.3-.69-.01-.26-.18-.39-.51-.39h-.39c-.33,0-.51.13-.51.38v.39ZM37.49,125.06c0,.83-.64,1.8-1.53,1.8-.61,0-.96-.42-.96-.91,0-1,1.57-1.11,2.22-1.11h.27v.22ZM37.61,127.24c0,.38.23.7.84.7h1.05c.33,0,.51-.18.51-.51v-.22c0-.33-.18-.51-.51-.51h-.09c-.18,0-.29-.09-.29-.29v-2.65c0-1.69-.95-2.61-2.73-2.61-1,0-1.77.33-2.21.56-.29.16-.35.4-.19.69l.14.26c.16.29.39.34.69.19.35-.18.87-.38,1.43-.38.69,0,1.22.3,1.22,1.15v.22h-.42c-1.07,0-3.73.21-3.73,2.24,0,1.35,1.07,2.01,2.2,2.01,1.44,0,2.04-1.14,2.09-1.27h.03s-.04.13-.04.34v.08ZM25.57,127.43c0,.33.18.51.51.51h6.03c.32,0,.51-.18.51-.51v-1.39c0-.33-.18-.51-.51-.51h-.44c-.33,0-.51.18-.51.51v.53h-2.78v-2.6h2.53c.33,0,.51-.18.51-.51v-.35c0-.32-.18-.51-.51-.51h-2.53v-2.54h2.59v.51c0,.33.18.51.51.51h.44c.32,0,.51-.18.51-.51v-1.36c0-.32-.18-.51-.51-.51h-5.84c-.33,0-.51.18-.51.51v.27c0,.33.18.51.51.51h.6v6.67h-.6c-.33,0-.51.18-.51.51v.26Z" fill="#ed1c24"/>
    <path d="M134.85,38.5c0,.88.48,1.36,1.36,1.36h5.13c.88,0,1.36-.48,1.36-1.36v-.66c0-.88-.48-1.36-1.43-1.36v-2.75h.18c.57,0,.88.07,1.06.44l2.07,4.53c.35.77.92,1.17,2.24,1.17h1.85c.88,0,1.36-.48,1.36-1.36v-.66c0-.88-.48-1.36-1.36-1.36l-1.58-3.41c-.57-1.25-1.23-1.54-1.3-1.58v-.04l2.9-4c.88-.02,1.36-.48,1.36-1.36v-.66c0-.88-.48-1.36-1.36-1.36h-4.73c-.88,0-1.36.48-1.36,1.36v.66c0,.88.51,1.36,1.39,1.36l-1.69,2.6h-1.01v-4.62c0-.88-.48-1.36-1.36-1.36h-3.7c-.88,0-1.36.48-1.36,1.36v.66c0,.88.48,1.36,1.36,1.36h.31v9.04h-.31c-.88,0-1.36.48-1.36,1.36v.66ZM116.5,38.5c0,.88.48,1.36,1.36,1.36h5.48c.88,0,1.36-.48,1.36-1.36v-.66c0-.88-.48-1.36-1.36-1.36h-.42v-3.41c0-.81-.13-1.89-.15-2h.11c.02.11.33,1.08.73,1.83l3.19,6.01c.35.66.86.97,1.61.97h2.33c.88,0,1.36-.48,1.36-1.36v-11.07h.31c.88,0,1.36-.48,1.36-1.36v-.66c0-.88-.48-1.36-1.36-1.36h-5.48c-.88,0-1.36.48-1.36,1.36v.66c0,.88.48,1.36,1.36,1.36h.42v3.48c0,.79.13,1.87.15,1.98h-.11c-.02-.11-.33-1.06-.73-1.83l-3.15-6.05c-.35-.66-.86-.97-1.61-.97h-4.05c-.88,0-1.36.48-1.36,1.36v.66c0,.88.48,1.36,1.36,1.36h.31v9.04h-.33c-.86,0-1.34.48-1.34,1.36v.66ZM106.48,32.12l.64-2.4c.31-1.14.42-2.02.42-2.11h.11c.02.09.11.95.42,2.11l.62,2.4h-2.2ZM99.7,38.5c0,.88.48,1.36,1.36,1.36h4.4c.88,0,1.36-.48,1.36-1.36v-.66c0-.88-.44-1.36-1.23-1.36l.31-1.45h3.37l.31,1.45h-.62c-.4,0-.62.48-.62,1.36v.66c0,.88.48,1.36,1.36,1.36h4.42c.88,0,1.36-.48,1.36-1.36v-.66c0-.88-.51-1.28-1.19-1.32l-3.65-11.35c-.24-.75-.75-1.12-1.54-1.12h-3.06c-.79,0-1.3.37-1.54,1.12l-3.63,11.33c-.7.07-1.19.46-1.19,1.34v.66ZM84.22,38.5c0,.88.48,1.36,1.36,1.36h5.13c.88,0,1.36-.48,1.36-1.36v-.66c0-.88-.48-1.36-1.43-1.36v-2h.31c.75,0,.92.18,1.12.59l1.8,3.63c.37.75.92,1.17,2.24,1.17h1.85c.88,0,1.36-.48,1.36-1.36v-.66c0-.88-.48-1.36-1.36-1.36l-1.03-2.13c-.37-.77-.99-1.03-1.06-1.06v-.04c1.39-.97,2.27-2.49,2.27-4.36,0-2.29-1.32-3.98-3.34-4.55-.92-.26-2.07-.29-3.3-.29h-5.92c-.88,0-1.36.48-1.36,1.36v.66c0,.88.48,1.36,1.36,1.36h.31v9.04h-.31c-.88,0-1.36.48-1.36,1.36v.66ZM90.65,31.02v-3.3h.81c1.54,0,2.02.62,2.02,1.58,0,1.12-.59,1.72-1.67,1.72h-1.17ZM70.98,38.5c0,.88.48,1.36,1.36,1.36h5.61c.88,0,1.36-.48,1.36-1.36v-.66c0-.88-.48-1.36-1.36-1.36h-.55v-2.2h2.9c.88,0,1.36-.48,1.36-1.36v-.95c0-.88-.48-1.36-1.36-1.36h-2.9v-2.88h1.83c.07,1.01.46,1.43,1.34,1.43h1.23c.88,0,1.36-.48,1.36-1.36v-2.38c0-.88-.48-1.36-1.36-1.36h-9.46c-.88,0-1.36.48-1.36,1.36v.66c0,.88.48,1.36,1.36,1.36h.31v9.04h-.31c-.88,0-1.36.48-1.36,1.36v.66Z" fill="#ed1c24"/>
    <path d="M172.73,102.95l-1.96-6.01-1.96,6.01h-6.31l5.1,3.72-1.96,6.04,5.13-3.73,5.12,3.73-1.96-6.04,5.11-3.72h-6.32ZM143.66,111.39c0,.66.38,1.04,1.04,1.04h7.44c.66,0,1.04-.38,1.04-1.04v-.72c0-.66-.38-1.04-1.04-1.04h-2.02v-10.46c0-.66-.38-1.04-1.04-1.04h-1.24c-.52,0-.9.14-1.28.5l-2.56,2.4c-.48.46-.5,1-.04,1.48l.6.64c.46.48.94.48,1.46.06l.1-.08c.4-.32.54-.72.56-.76h.04c0,.06-.02.56-.02,1.1v6.16h-2c-.66,0-1.04.38-1.04,1.04v.72ZM129.83,109.63v-8.7h1.04c.72,0,1.3.04,1.92.3,1.32.56,2.2,1.94,2.2,4.06,0,1.9-.72,3.34-1.94,3.94-.64.32-1.3.4-2.18.4h-1.04ZM124.65,111.39c0,.66.38,1.04,1.04,1.04h5.28c1.3,0,2.38-.1,3.42-.48,2.62-.96,4.3-3.4,4.3-6.68,0-3.58-1.96-6.04-4.8-6.84-.9-.26-1.84-.3-2.94-.3h-5.26c-.66,0-1.04.38-1.04,1.04v.52c0,.66.38,1.04,1.04,1.04h.56v9.1h-.56c-.66,0-1.04.38-1.04,1.04v.52ZM115.32,104.61v-3.68h1.28c1.3,0,2.16.34,2.16,1.82,0,1.3-.7,1.86-1.82,1.86h-1.62ZM110.14,111.39c0,.66.38,1.04,1.04,1.04h4.6c.66,0,1.04-.38,1.04-1.04v-.52c0-.66-.38-1.04-1.04-1.04h-.46v-2.42h.72c.74,0,1,.16,1.24.62l1.74,3.34c.4.78.86,1.06,2.02,1.06h1.32c.66,0,1.04-.38,1.04-1.04v-.52c0-.66-.38-1.04-1.04-1.04h-.14l-1.34-2.58c-.32-.62-.82-.84-.88-.86v-.04c1.42-.76,2.32-2.04,2.32-3.92,0-2.1-1.14-3.5-2.86-4.02-.82-.24-1.78-.28-2.86-.28h-5.42c-.66,0-1.04.38-1.04,1.04v.52c0,.66.38,1.04,1.04,1.04h.56v9.1h-.54c-.66,0-1.06.38-1.06,1.04v.52ZM100.76,105.21l.76-2.64c.26-.88.28-1.44.28-1.5h.08c0,.06.04.62.28,1.5l.74,2.64h-2.14ZM94.72,111.39c0,.66.38,1.04,1.04,1.04h3.9c.66,0,1.04-.38,1.04-1.04v-.52c0-.66-.38-1.04-1.04-1.04h-.2l.54-1.9h3.68l.54,1.9h-.2c-.66,0-1.04.38-1.04,1.04v.52c0,.66.38,1.04,1.04,1.04h3.9c.66,0,1.04-.38,1.04-1.04v-.52c0-.66-.38-1.04-1.04-1.04h-.14l-3.62-10.86c-.18-.56-.58-.84-1.18-.84h-2.28c-.6,0-1,.28-1.18.84l-3.62,10.86h-.16c-.66,0-1.02.38-1.02,1.04v.52ZM79.72,111.53c.14.62.52.9,1.14.9h2.1c.62,0,1-.3,1.14-.9l1.6-6.42c.18-.7.24-1.5.24-1.58h.08c0,.08.06.88.24,1.58l1.6,6.42c.14.6.52.9,1.14.9h2.1c.62,0,1-.28,1.14-.9l2.62-10.8h.16c.66,0,1.04-.38,1.04-1.04v-.52c0-.66-.38-1.04-1.04-1.04h-4.26c-.66,0-1.04.38-1.04,1.04v.52c0,.66.38,1.04,1.04,1.04h.62l-1.32,6.34c-.14.7-.18,1.42-.18,1.5h-.08c0-.08-.06-.8-.24-1.5l-1.98-8.04c-.14-.6-.52-.9-1.14-.9h-.92c-.62,0-1,.3-1.14.9l-1.98,8.04c-.18.7-.24,1.42-.24,1.5h-.08c0-.08-.04-.8-.18-1.5l-1.32-6.34h.62c.66,0,1.04-.38,1.04-1.04v-.52c0-.66-.38-1.04-1.04-1.04h-4.26c-.66,0-1.04.38-1.04,1.04v.52c0,.66.38,1.04,1.04,1.04h.16l2.62,10.8ZM62.17,102.95l-1.96-6.01-1.97,6.01h-6.31l5.1,3.72-1.97,6.04,5.13-3.73,5.12,3.73-1.97-6.04,5.11-3.72h-6.32Z" fill="#fff"/>
  </g>
  <path d="M2.34,30.9c-.13-.61.17-1.05.78-1.18l.5-.11-1.8-8.46-.52.11c-.61.13-1.04-.15-1.17-.76l-.1-.48c-.13-.61.15-1.04.76-1.17l5.04-1.07c1-.21,1.9-.37,2.71-.3,1.7.14,3.04,1.22,3.45,3.17.37,1.75-.21,3.11-1.38,4.1v.04c.07,0,.58.11,1,.63l1.76,2.13.13-.03c.61-.13,1.04.15,1.17.76l.1.48c.13.61-.15,1.04-.76,1.17l-1.23.26c-1.08.23-1.56.06-2.09-.59l-2.28-2.76c-.31-.38-.59-.48-1.27-.33l-.67.14.48,2.25.43-.09c.61-.13,1.04.15,1.17.76l.1.48c.13.61-.15,1.04-.76,1.17l-4.27.91c-.61.13-1.04-.15-1.17-.76l-.1-.48ZM7.43,23.74c1.04-.22,1.58-.88,1.32-2.09-.29-1.38-1.16-1.52-2.37-1.26l-1.19.25.73,3.42,1.51-.32ZM15.46,28.11c-.13-.61.15-1.04.76-1.17l.52-.11-1.8-8.46-.52.11c-.61.13-1.04-.15-1.17-.76l-.1-.48c-.13-.61.15-1.04.76-1.17l8.31-1.77c.61-.13,1.04.15,1.17.76l.42,1.99c.13.61-.15,1.04-.76,1.17l-.85.18c-.61.13-1.04-.13-1.17-.74l-.08-.37-2.64.56.57,2.69,2.92-.62c.61-.13,1.04.15,1.17.76l.14.67c.13.61-.15,1.04-.76,1.17l-2.92.62.59,2.79,2.86-.61-.08-.35c-.13-.61.15-1.04.76-1.17l.85-.18c.61-.13,1.04.15,1.17.76l.42,1.99c.13.61-.15,1.04-.76,1.17l-8.53,1.81c-.61.13-1.04-.15-1.17-.76l-.1-.48ZM25.58,20.29c-.13-.61.15-1.04.76-1.17l3.9-.83c.61-.13,1.04.15,1.17.76l.18.85c.13.61-.15,1.04-.76,1.17l-3.9.83c-.61.13-1.04-.15-1.17-.76l-.18-.85ZM33.43,24.29c-.13-.61.15-1.04.76-1.17l.52-.11-1.8-8.46-.52.11c-.61.13-1.04-.15-1.17-.76l-.1-.48c-.13-.61.15-1.04.76-1.17l8.31-1.77c.61-.13,1.04.15,1.17.76l.42,1.99c.13.61-.15,1.04-.76,1.17l-.85.18c-.61.13-1.04-.13-1.17-.74l-.08-.37-2.64.56.57,2.69,2.92-.62c.61-.13,1.04.15,1.17.76l.14.67c.13.61-.15,1.04-.76,1.17l-2.92.62.59,2.79,2.86-.61-.08-.35c-.13-.61.15-1.04.76-1.17l.85-.18c.61-.13,1.04.15,1.17.76l.42,1.99c.13.61-.15,1.04-.76,1.17l-8.53,1.81c-.61.13-1.04-.15-1.17-.76l-.1-.48ZM45.03,21.82c-.13-.61.13-1.04.74-1.17l.54-.11-1.8-8.46-.52.11c-.61.13-1.04-.15-1.17-.76l-.1-.48c-.13-.61.15-1.04.76-1.17l4.37-.93c.61-.13,1.04.15,1.17.76l.1.48c.13.61-.15,1.04-.76,1.17l-.52.11,1.76,8.27,2.86-.61-.21-.99c-.13-.61.15-1.04.76-1.17l.85-.18c.61-.13,1.04.15,1.17.76l.56,2.62c.13.61-.15,1.04-.76,1.17l-8.53,1.81c-.61.13-1.04-.15-1.17-.76l-.1-.48ZM56.31,19.43c-.13-.61.15-1.04.76-1.17l.52-.11-1.8-8.46-.52.11c-.61.13-1.04-.15-1.17-.76l-.1-.48c-.13-.61.15-1.04.76-1.17l8.31-1.77c.61-.13,1.04.15,1.17.76l.42,1.99c.13.61-.15,1.04-.76,1.17l-.85.18c-.61.13-1.04-.13-1.17-.74l-.08-.37-2.64.56.57,2.69,2.92-.62c.61-.13,1.04.15,1.17.76l.14.67c.13.61-.15,1.04-.76,1.17l-2.92.62.59,2.79,2.86-.61-.08-.35c-.13-.61.15-1.04.76-1.17l.85-.18c.61-.13,1.04.15,1.17.76l.42,1.99c.13.61-.15,1.04-.76,1.17l-8.53,1.81c-.61.13-1.04-.15-1.17-.76l-.1-.48ZM76.67,12.88c-.13-.61.15-1.04.76-1.17l1.04-.22c.61-.13,1.04.15,1.17.76l.25,1.17c.43,2.03-3.03,3.38-4.87,3.77-4.07.87-7.68-1.51-8.51-5.4s1.61-7.49,5.5-8.32c1.62-.34,5.48-.62,5.94,1.52l.24,1.13c.13.61-.15,1.04-.76,1.17l-1.04.22c-.61.13-1.04-.15-1.17-.76v-.06c-.17-.74-1.57-.66-2.46-.47-2.16.46-3.36,2.17-2.84,4.64.58,2.75,2.55,3.95,4.76,3.48.59-.13,2.18-.62,2.01-1.42v-.06ZM83.64,13.62c-.13-.61.15-1.04.76-1.17l.52-.11-1.76-8.27-1.58.34.19.91c.13.61-.15,1.04-.76,1.17l-.85.18c-.61.13-1.04-.15-1.17-.76l-.54-2.55c-.13-.61.15-1.04.76-1.17L89.34.03c.61-.13,1.04.15,1.17.76l.54,2.55c.13.61-.15,1.04-.76,1.17l-.85.18c-.61.13-1.04-.15-1.17-.74l-.2-.93-1.58.34,1.76,8.27.52-.11c.61-.13,1.04.15,1.17.76l.1.48c.13.61-.15,1.04-.76,1.17l-4.37.93c-.61.13-1.04-.15-1.17-.76l-.1-.48Z" fill="#fff"/>
</svg>